<svg width="140" height="140" viewBox="0 0 140 140" fill="none" xmlns="http://www.w3.org/2000/svg">
<circle cx="70" cy="70" r="70" fill="#FABC02" fill-opacity="0.1"/>
<circle cx="70" cy="70" r="50" fill="#FABC02" fill-opacity="0.2"/>
<path d="M69.904 82.416C68.944 82.416 68.112 82.096 67.408 81.456C66.768 80.816 66.384 79.888 66.256 78.672L62.704 41.328L62.608 40.368C62.608 38.384 63.28 36.816 64.624 35.664C66.032 34.448 67.792 33.84 69.904 33.84C72.144 33.84 73.968 34.544 75.376 35.952C76.784 37.296 77.36 39.12 77.104 41.424L73.552 78.672C73.424 79.888 73.008 80.816 72.304 81.456C71.664 82.096 70.864 82.416 69.904 82.416ZM69.904 102.576C67.856 102.576 66.16 101.904 64.816 100.56C63.472 99.152 62.8 97.424 62.8 95.376C62.8 93.328 63.472 91.632 64.816 90.288C66.16 88.88 67.856 88.176 69.904 88.176C71.952 88.176 73.648 88.88 74.992 90.288C76.336 91.632 77.008 93.328 77.008 95.376C77.008 97.424 76.336 99.152 74.992 100.56C73.648 101.904 71.952 102.576 69.904 102.576Z" fill="#FABC02"/>
</svg>
