<svg width="25" height="30" viewBox="0 0 25 30" fill="none" xmlns="http://www.w3.org/2000/svg">
<path d="M12.1816 0.890706C12.2285 1.1661 13.125 6.4278 13.125 8.43756C13.125 11.502 11.4961 13.6875 9.08787 14.5665L9.84372 28.5176C9.88474 29.3203 9.24607 30 8.43748 30H4.68749C3.88475 30 3.24023 29.3262 3.28124 28.5176L4.0371 14.5665C1.62304 13.6875 0 11.4961 0 8.43756C0 6.42194 0.896482 1.1661 0.943357 0.890706C1.13086 -0.298743 3.59765 -0.316322 3.74999 0.955159V9.22857C3.82616 9.42779 4.63475 9.41607 4.68749 9.22857C4.76952 7.74616 5.15038 1.07235 5.15624 0.920003C5.34959 -0.298744 7.77537 -0.298744 7.96287 0.920003C7.97459 1.07821 8.34959 7.74616 8.43162 9.22857C8.48435 9.41607 9.2988 9.42779 9.36911 9.22857V0.955159C9.52146 -0.310462 11.9941 -0.298743 12.1816 0.890706ZM19.166 17.6309L18.2871 28.4766C18.2167 29.2969 18.8671 30 19.6874 30H22.9687C23.748 30 24.3749 29.3731 24.3749 28.5938V1.40633C24.3749 0.632895 23.748 8.3755e-05 22.9687 8.3755e-05C18.1347 8.3755e-05 9.99607 10.459 19.166 17.6309Z" fill="#CCE52D"/>
</svg>
