<svg width="27" height="30" viewBox="0 0 27 30" fill="none" xmlns="http://www.w3.org/2000/svg">
<path d="M0 27.1875C0 28.7402 1.25977 30 2.8125 30H23.4375C24.9902 30 26.25 28.7402 26.25 27.1875V11.25H0V27.1875ZM18.75 15.7031C18.75 15.3164 19.0664 15 19.4531 15H21.7969C22.1836 15 22.5 15.3164 22.5 15.7031V18.0469C22.5 18.4336 22.1836 18.75 21.7969 18.75H19.4531C19.0664 18.75 18.75 18.4336 18.75 18.0469V15.7031ZM18.75 23.2031C18.75 22.8164 19.0664 22.5 19.4531 22.5H21.7969C22.1836 22.5 22.5 22.8164 22.5 23.2031V25.5469C22.5 25.9336 22.1836 26.25 21.7969 26.25H19.4531C19.0664 26.25 18.75 25.9336 18.75 25.5469V23.2031ZM11.25 15.7031C11.25 15.3164 11.5664 15 11.9531 15H14.2969C14.6836 15 15 15.3164 15 15.7031V18.0469C15 18.4336 14.6836 18.75 14.2969 18.75H11.9531C11.5664 18.75 11.25 18.4336 11.25 18.0469V15.7031ZM11.25 23.2031C11.25 22.8164 11.5664 22.5 11.9531 22.5H14.2969C14.6836 22.5 15 22.8164 15 23.2031V25.5469C15 25.9336 14.6836 26.25 14.2969 26.25H11.9531C11.5664 26.25 11.25 25.9336 11.25 25.5469V23.2031ZM3.75 15.7031C3.75 15.3164 4.06641 15 4.45312 15H6.79688C7.18359 15 7.5 15.3164 7.5 15.7031V18.0469C7.5 18.4336 7.18359 18.75 6.79688 18.75H4.45312C4.06641 18.75 3.75 18.4336 3.75 18.0469V15.7031ZM3.75 23.2031C3.75 22.8164 4.06641 22.5 4.45312 22.5H6.79688C7.18359 22.5 7.5 22.8164 7.5 23.2031V25.5469C7.5 25.9336 7.18359 26.25 6.79688 26.25H4.45312C4.06641 26.25 3.75 25.9336 3.75 25.5469V23.2031ZM23.4375 3.75H20.625V0.9375C20.625 0.421875 20.2031 0 19.6875 0H17.8125C17.2969 0 16.875 0.421875 16.875 0.9375V3.75H9.375V0.9375C9.375 0.421875 8.95312 0 8.4375 0H6.5625C6.04688 0 5.625 0.421875 5.625 0.9375V3.75H2.8125C1.25977 3.75 0 5.00977 0 6.5625V9.375H26.25V6.5625C26.25 5.00977 24.9902 3.75 23.4375 3.75Z" fill="#EBEB58"/>
</svg>
