<svg width="34" height="30" viewBox="0 0 34 30" fill="none" xmlns="http://www.w3.org/2000/svg">
<path d="M16.875 0C12.7975 0 9.49219 3.30527 9.49219 7.38281C9.49219 10.6793 14.3174 16.6875 16.166 18.8684C16.5404 19.3102 17.2102 19.3102 17.584 18.8684C19.4326 16.6875 24.2578 10.6793 24.2578 7.38281C24.2578 3.30527 20.9525 0 16.875 0ZM16.875 9.84375C15.5156 9.84375 14.4141 8.74219 14.4141 7.38281C14.4141 6.02344 15.5156 4.92188 16.875 4.92188C18.2344 4.92188 19.3359 6.02344 19.3359 7.38281C19.3359 8.74219 18.2344 9.84375 16.875 9.84375ZM1.17891 12.6533C0.830964 12.7925 0.532694 13.0327 0.322564 13.343C0.112435 13.6533 8.33325e-05 14.0194 0 14.3941L0 29.0613C0 29.7246 0.669727 30.1781 1.28555 29.932L9.375 26.25V12.593C8.85703 11.6566 8.4334 10.7449 8.12988 9.87305L1.17891 12.6533ZM16.875 21.0744C16.0506 21.0744 15.2707 20.7123 14.7357 20.0807C13.5838 18.7213 12.3586 17.1732 11.25 15.5854V26.2494L22.5 29.9994V15.5859C21.3914 17.1732 20.1668 18.7219 19.0143 20.0812C18.4793 20.7123 17.6994 21.0744 16.875 21.0744ZM32.4645 9.44297L24.375 13.125V30L32.5711 26.7217C32.9191 26.5826 33.2174 26.3424 33.4275 26.0321C33.6377 25.7218 33.75 25.3556 33.75 24.9809V10.3137C33.75 9.65039 33.0803 9.19688 32.4645 9.44297Z" fill="#FABC02"/>
</svg>
