<svg width="38" height="38" viewBox="0 0 38 38" fill="none" xmlns="http://www.w3.org/2000/svg">
<path d="M38 19C38 29.4934 29.4934 38 19 38C8.50659 38 0 29.4934 0 19C0 8.50659 8.50659 0 19 0C29.4934 0 38 8.50659 38 19Z" fill="#FABC02" fill-opacity="0.2"/>
<path d="M19.0076 23.3743C18.6119 23.3743 18.2689 23.2533 17.9787 23.0112C17.7149 22.7691 17.5566 22.4181 17.5038 21.9581L16.0396 7.8324L16 7.46927C16 6.71881 16.277 6.1257 16.8311 5.68994C17.4115 5.22998 18.137 5 19.0076 5C19.931 5 20.6829 5.26629 21.2633 5.79888C21.8437 6.30726 22.0812 6.99721 21.9756 7.86872L20.5114 21.9581C20.4587 22.4181 20.2872 22.7691 19.997 23.0112C19.7331 23.2533 19.4033 23.3743 19.0076 23.3743ZM19.0076 31C18.1634 31 17.4642 30.7458 16.9102 30.2374C16.3562 29.7048 16.0791 29.0512 16.0791 28.2765C16.0791 27.5019 16.3562 26.8603 16.9102 26.352C17.4642 25.8194 18.1634 25.5531 19.0076 25.5531C19.8519 25.5531 20.551 25.8194 21.105 26.352C21.6591 26.8603 21.9361 27.5019 21.9361 28.2765C21.9361 29.0512 21.6591 29.7048 21.105 30.2374C20.551 30.7458 19.8519 31 19.0076 31Z" fill="#FABC02"/>
</svg>
