<svg width="98" height="249" viewBox="0 0 98 249" fill="none" xmlns="http://www.w3.org/2000/svg">
<path d="M78.9836 247.715C79.4254 247.701 79.9222 247.357 80.091 246.947C81.0719 244.568 81.4242 242.631 81.775 240.702C83.2177 232.767 79.8397 227.237 74.8901 222.667L76.3466 214.656C76.5739 213.4 75.9308 211.757 74.9103 210.99L68.006 205.809C67.7683 205.644 67.5008 205.528 67.2184 205.466C66.7291 205.377 66.2246 205.486 65.8157 205.77C65.4069 206.053 65.1272 206.487 65.0382 206.976L63.5874 214.955L62.1744 212.914C61.46 211.881 59.8765 211.464 58.6963 212.281L54.0719 215.483C53.0561 216.184 52.6113 217.77 53.4392 218.963L54.8521 221.004L46.8702 219.553C46.3809 219.464 45.8763 219.573 45.4675 219.856C45.0586 220.14 44.779 220.573 44.6899 221.063C44.6488 221.349 44.6636 221.64 44.7337 221.921L47.1502 230.2C47.5067 231.426 48.8167 232.608 50.0742 232.836L58.1017 234.296C60.6469 240.523 64.6449 245.652 72.538 247.088C74.4739 247.447 76.4111 247.799 78.9836 247.715ZM69.2302 236.327C69.3409 235.719 69.6294 235.157 70.0592 234.713C70.4891 234.269 71.041 233.962 71.6451 233.832C72.2492 233.702 72.8784 233.753 73.4532 233.98C74.028 234.208 74.5225 234.6 74.8742 235.108C75.2259 235.616 75.4191 236.217 75.4292 236.835C75.4394 237.453 75.266 238.06 74.9312 238.58C74.5963 239.099 74.1149 239.508 73.5479 239.754C72.9809 240 72.3537 240.072 71.7456 239.961C70.9303 239.813 70.2073 239.346 69.7357 238.665C69.264 237.983 69.0822 237.142 69.2302 236.327Z" fill="#FABC02"/>
<path d="M47.5456 201.5C18.879 169 -24.6544 103.2 30.5456 100C85.7456 96.8 95.2123 32.6667 93.0456 1" stroke="url(#paint0_linear)" stroke-width="8"/>
<defs>
<linearGradient id="paint0_linear" x1="48.6624" y1="201.5" x2="48.6624" y2="1" gradientUnits="userSpaceOnUse">
<stop stop-color="#FABC02" stop-opacity="0.5"/>
<stop offset="1" stop-color="#FABC02" stop-opacity="0"/>
</linearGradient>
</defs>
</svg>
