<svg width="99" height="261" viewBox="0 0 99 261" fill="none" xmlns="http://www.w3.org/2000/svg">
<path d="M50.4573 59.8903C79.124 92.3903 122.657 158.19 67.4573 161.39C12.2573 164.59 2.79064 228.724 4.95731 260.39" stroke="url(#paint0_linear)" stroke-width="8"/>
<path d="M17.6398 19.9385L22.5079 27.3762L14.9607 42.0857C14.8603 42.2817 14.8134 42.5004 14.8249 42.7198C14.8363 42.9392 14.9057 43.1515 15.0259 43.3351L17.8158 47.5977C18.2686 48.2895 19.2601 48.3535 19.8037 47.7262L28.9332 37.1932L33.3144 43.8871L31.3893 49.1629C31.2545 49.5318 31.3019 49.9423 31.5162 50.2697L33.2195 52.8721C33.6629 53.5496 34.6276 53.6284 35.1801 53.0316L40.9056 46.3551L49.3153 43.7799C50.0833 43.5124 50.3972 42.5968 49.9538 41.9193L48.2504 39.3169C48.0358 38.9889 47.6789 38.7818 47.2869 38.7577L41.6816 38.4107L37.3003 31.7168L50.6059 27.5658C51.3984 27.3185 51.7371 26.3839 51.2843 25.6921L48.4944 21.4295C48.2499 21.0559 47.8228 20.8428 47.3759 20.8704L30.875 21.8998L26.0069 14.4621C24.5012 12.1616 20.045 9.4404 17.7343 10.9528C15.4235 12.4653 16.1341 17.638 17.6398 19.9385Z" fill="#FABC02"/>
<defs>
<linearGradient id="paint0_linear" x1="49.3406" y1="59.8903" x2="49.3406" y2="260.39" gradientUnits="userSpaceOnUse">
<stop stop-color="#FABC02" stop-opacity="0.5"/>
<stop offset="1" stop-color="#FABC02" stop-opacity="0"/>
</linearGradient>
</defs>
</svg>
