<svg width="182" height="29" viewBox="0 0 182 29" fill="none" xmlns="http://www.w3.org/2000/svg">
<path d="M13.3907 0.99884L9.72898 8.42313L1.53647 9.61752C0.0673163 9.8306 -0.521468 11.6418 0.543951 12.6792L6.47104 18.4549L5.06918 26.6138C4.81684 28.0885 6.37011 29.1932 7.67104 28.5035L15 24.6511L22.329 28.5035C23.6299 29.1876 25.1832 28.0885 24.9308 26.6138L23.529 18.4549L29.4561 12.6792C30.5215 11.6418 29.9327 9.8306 28.4635 9.61752L20.271 8.42313L16.6093 0.99884C15.9533 -0.324522 14.0523 -0.341345 13.3907 0.99884Z" fill="#FABC02"/>
<path d="M51.3907 0.99884L47.729 8.42313L39.5365 9.61752C38.0673 9.8306 37.4785 11.6418 38.544 12.6792L44.471 18.4549L43.0692 26.6138C42.8168 28.0885 44.3701 29.1932 45.671 28.5035L53 24.6511L60.329 28.5035C61.6299 29.1876 63.1832 28.0885 62.9308 26.6138L61.529 18.4549L67.4561 12.6792C68.5215 11.6418 67.9327 9.8306 66.4635 9.61752L58.271 8.42313L54.6093 0.99884C53.9533 -0.324522 52.0523 -0.341345 51.3907 0.99884Z" fill="#FABC02"/>
<path d="M89.3907 0.99884L85.729 8.42313L77.5365 9.61752C76.0673 9.8306 75.4785 11.6418 76.544 12.6792L82.471 18.4549L81.0692 26.6138C80.8168 28.0885 82.3701 29.1932 83.671 28.5035L91 24.6511L98.329 28.5035C99.6299 29.1876 101.183 28.0885 100.931 26.6138L99.529 18.4549L105.456 12.6792C106.521 11.6418 105.933 9.8306 104.464 9.61752L96.271 8.42313L92.6093 0.99884C91.9533 -0.324522 90.0523 -0.341345 89.3907 0.99884Z" fill="#FABC02"/>
<path d="M127.391 0.99884L123.729 8.42313L115.536 9.61752C114.067 9.8306 113.479 11.6418 114.544 12.6792L120.471 18.4549L119.069 26.6138C118.817 28.0885 120.37 29.1932 121.671 28.5035L129 24.6511L136.329 28.5035C137.63 29.1876 139.183 28.0885 138.931 26.6138L137.529 18.4549L143.456 12.6792C144.521 11.6418 143.933 9.8306 142.464 9.61752L134.271 8.42313L130.609 0.99884C129.953 -0.324522 128.052 -0.341345 127.391 0.99884Z" fill="#FABC02"/>
<path d="M165.391 0.99884L161.729 8.42313L153.536 9.61752C152.067 9.8306 151.479 11.6418 152.544 12.6792L158.471 18.4549L157.069 26.6138C156.817 28.0885 158.37 29.1932 159.671 28.5035L167 24.6511L174.329 28.5035C175.63 29.1876 177.183 28.0885 176.931 26.6138L175.529 18.4549L181.456 12.6792C182.521 11.6418 181.933 9.8306 180.464 9.61752L172.271 8.42313L168.609 0.99884C167.953 -0.324522 166.052 -0.341345 165.391 0.99884Z" fill="#FABC02"/>
</svg>
